<svg width="503" height="330" xmlns="http://www.w3.org/2000/svg"><g transform="translate(.5)" fill="none" fill-rule="evenodd"><path d="M239.229 315.05c-85.36 0-154.801-68.36-154.801-152.39 0-84.03 69.441-152.392 154.8-152.392 85.36 0 154.805 68.366 154.805 152.393 0 84.026-69.442 152.389-154.804 152.389z" fill="#EAF4FE" fill-rule="nonzero"/><path d="M400.958 37.675H85.872c-6.323 0-11.058 3.182-9.998 5.03l32.111 53.502c1.056 1.865 7.818 3.369 13.408 3.369h244.025c5.593 0 12.365-1.504 13.414-3.37L410.5 43.43c1.052-1.866-3.221-5.755-9.542-5.755zM376.137 279.911c0 5.588-4.53 10.117-10.117 10.117H119.623a10.114 10.114 0 01-10.114-10.117V114.062a10.113 10.113 0 0110.114-10.124H366.02a10.117 10.117 0 0110.117 10.124v165.85z" fill="#C5E1F9" fill-rule="nonzero"/><path d="M400.958 40.064H85.872c-6.323 0-10.6 1.5-9.541 3.356l33.05 55.172c1.055 1.856 6.435 3.363 12.025 3.363H365.43c5.594 0 10.976-1.507 12.03-3.363L410.5 43.43c1.052-1.866-3.221-3.366-9.542-3.366z" fill="#005B82" fill-rule="nonzero"/><rect fill="#EAF4FE" fill-rule="nonzero" x="124.976" y="116.734" width="235.985" height="97.006" rx="33.48"/><path d="M145.51 127.624a2.211 2.211 0 01-2.199 2.208h-9.87a2.208 2.208 0 01-2.201-2.208v-3.728a2.204 2.204 0 012.201-2.2h9.87a2.208 2.208 0 012.198 2.2v3.728zM161.611 127.624a2.214 2.214 0 01-2.204 2.208h-9.87a2.214 2.214 0 01-2.205-2.208v-3.728a2.211 2.211 0 012.204-2.2h9.87a2.211 2.211 0 012.205 2.2v3.728zM177.71 127.624a2.211 2.211 0 01-2.208 2.208h-9.87a2.211 2.211 0 01-2.201-2.208v-3.728a2.208 2.208 0 012.2-2.2h9.871c1.217 0 2.204.984 2.208 2.2v3.728zM193.812 127.624a2.211 2.211 0 01-2.201 2.208h-9.87a2.214 2.214 0 01-2.205-2.208v-3.728a2.211 2.211 0 012.204-2.2h9.87a2.208 2.208 0 012.202 2.2v3.728zM209.91 127.624a2.211 2.211 0 01-2.204 2.208h-9.87a2.214 2.214 0 01-2.208-2.208v-3.728a2.211 2.211 0 012.207-2.2h9.87c1.216.001 2.202.985 2.205 2.2v3.728zM226.012 127.624a2.214 2.214 0 01-2.204 2.208h-9.87a2.214 2.214 0 01-2.208-2.208v-3.728a2.211 2.211 0 012.207-2.2h9.87a2.211 2.211 0 012.205 2.2v3.728zM242.114 127.624a2.214 2.214 0 01-2.208 2.208h-9.87a2.218 2.218 0 01-2.208-2.208v-3.728a2.214 2.214 0 012.208-2.2h9.87a2.211 2.211 0 012.208 2.2v3.728zM258.213 127.624a2.211 2.211 0 01-2.201 2.208h-9.87a2.214 2.214 0 01-2.208-2.208v-3.728a2.211 2.211 0 012.207-2.2h9.87a2.208 2.208 0 012.202 2.2v3.728zM274.311 127.624a2.214 2.214 0 01-2.204 2.208h-9.884a2.208 2.208 0 01-2.2-2.208v-3.728a2.204 2.204 0 012.2-2.2h9.87a2.211 2.211 0 012.205 2.2l.013 3.728zM290.413 127.624a2.214 2.214 0 01-2.204 2.208h-9.87a2.211 2.211 0 01-2.205-2.208v-3.728a2.208 2.208 0 012.204-2.2h9.87a2.211 2.211 0 012.205 2.2v3.728zM306.512 127.624a2.211 2.211 0 01-2.205 2.208h-9.87a2.214 2.214 0 01-2.204-2.208v-3.728a2.211 2.211 0 012.204-2.2h9.87c1.217 0 2.203.984 2.205 2.2v3.728zM322.614 127.624a2.211 2.211 0 01-2.201 2.208h-9.87a2.214 2.214 0 01-2.205-2.208v-3.728a2.211 2.211 0 012.204-2.2h9.87a2.208 2.208 0 012.202 2.2v3.728zM338.716 127.624a2.218 2.218 0 01-2.211 2.208h-9.87a2.214 2.214 0 01-2.208-2.208v-3.728a2.211 2.211 0 012.207-2.2h9.87a2.214 2.214 0 012.212 2.2v3.728zM354.814 127.624a2.214 2.214 0 01-2.204 2.208h-9.87a2.218 2.218 0 01-2.208-2.208v-3.728a2.214 2.214 0 012.207-2.2h9.87a2.211 2.211 0 012.205 2.2v3.728zM144.766 142.953a2.204 2.204 0 01-2.201 2.194h-9.134a2.201 2.201 0 01-2.2-2.194v-8.755a2.211 2.211 0 012.2-2.214h9.134a2.211 2.211 0 012.2 2.214v8.755zM160.331 142.953a2.204 2.204 0 01-2.197 2.194h-9.13a2.204 2.204 0 01-2.205-2.194v-8.755c0-1.22.985-2.209 2.204-2.214h9.13c1.218.007 2.2.997 2.198 2.214v8.755zM175.903 142.953a2.211 2.211 0 01-2.207 2.194h-9.127a2.211 2.211 0 01-2.208-2.194v-8.755a2.22 2.22 0 012.208-2.214h9.127a2.218 2.218 0 012.207 2.214v8.755zM191.466 142.953a2.201 2.201 0 01-2.198 2.194h-9.13a2.208 2.208 0 01-2.204-2.194v-8.755c0-1.22.985-2.209 2.204-2.214h9.13c1.217.007 2.2.997 2.198 2.214v8.755zM207.041 142.953a2.204 2.204 0 01-2.2 2.194h-9.138a2.201 2.201 0 01-2.197-2.194v-8.755a2.211 2.211 0 012.197-2.214h9.137a2.214 2.214 0 012.201 2.214v8.755zM222.607 142.953a2.201 2.201 0 01-2.201 2.194h-9.134a2.204 2.204 0 01-2.2-2.194v-8.755a2.211 2.211 0 012.2-2.214h9.134a2.208 2.208 0 012.2 2.214v8.755zM238.176 142.953a2.204 2.204 0 01-2.205 2.194h-9.13a2.201 2.201 0 01-2.2-2.194v-8.755a2.211 2.211 0 012.2-2.214h9.13a2.214 2.214 0 012.205 2.214v8.755zM253.751 142.953a2.211 2.211 0 01-2.21 2.194h-9.134a2.204 2.204 0 01-2.201-2.194v-8.755c0-1.218.983-2.207 2.2-2.214h9.134c1.221.003 2.21.993 2.211 2.214v8.755zM269.31 142.953a2.204 2.204 0 01-2.198 2.194h-9.136a2.204 2.204 0 01-2.208-2.194v-8.755c0-1.22.987-2.21 2.208-2.214h9.136c1.218.007 2.2.997 2.198 2.214v8.755zM284.876 142.953a2.204 2.204 0 01-2.201 2.194h-9.134a2.204 2.204 0 01-2.204-2.194v-8.755c0-1.22.985-2.209 2.204-2.214h9.134a2.214 2.214 0 012.2 2.214v8.755zM300.445 142.953a2.204 2.204 0 01-2.201 2.194h-9.13a2.201 2.201 0 01-2.202-2.194v-8.755a2.211 2.211 0 012.202-2.214h9.13a2.211 2.211 0 012.2 2.214v8.755zM316.02 142.953a2.208 2.208 0 01-2.204 2.194h-9.15a2.201 2.201 0 01-2.201-2.194v-8.755a2.211 2.211 0 012.201-2.214h9.14a2.214 2.214 0 012.204 2.214l.01 8.755zM331.59 142.953a2.211 2.211 0 01-2.212 2.194h-9.133a2.208 2.208 0 01-2.205-2.194v-8.755a2.218 2.218 0 012.205-2.214h9.133c1.221.003 2.21.993 2.211 2.214v8.755zM354.814 142.953a2.208 2.208 0 01-2.204 2.194h-16.78a2.208 2.208 0 01-2.204-2.194v-8.755c0-1.22.985-2.209 2.204-2.214h16.78a2.214 2.214 0 012.204 2.214v8.755zM152.905 157.828a2.22 2.22 0 01-2.207 2.21H133.43a2.214 2.214 0 01-2.2-2.21v-8.756a2.214 2.214 0 012.2-2.207h17.257a2.22 2.22 0 012.208 2.207l.01 8.756zM168.168 157.828a2.218 2.218 0 01-2.2 2.21h-9.137a2.214 2.214 0 01-2.195-2.21v-8.756a2.214 2.214 0 012.201-2.207h9.137a2.218 2.218 0 012.201 2.207l-.007 8.756zM183.708 157.828a2.218 2.218 0 01-2.205 2.21h-9.133a2.218 2.218 0 01-2.204-2.21v-8.756a2.218 2.218 0 012.204-2.207h9.133a2.218 2.218 0 012.205 2.207v8.756zM199.247 157.828a2.218 2.218 0 01-2.204 2.21h-9.127a2.214 2.214 0 01-2.201-2.21v-8.756a2.214 2.214 0 012.2-2.207h9.128c1.216.005 2.2.991 2.204 2.207v8.756zM214.786 157.828a2.214 2.214 0 01-2.2 2.21h-9.128a2.22 2.22 0 01-2.21-2.21v-8.756a2.22 2.22 0 012.21-2.207h9.127a2.214 2.214 0 012.201 2.207v8.756zM230.332 157.828a2.218 2.218 0 01-2.208 2.21h-9.126a2.218 2.218 0 01-2.205-2.21v-8.756a2.218 2.218 0 012.205-2.207h9.126a2.218 2.218 0 012.208 2.207v8.756zM245.871 157.828a2.214 2.214 0 01-2.197 2.21h-9.14a2.218 2.218 0 01-2.201-2.21v-8.756a2.218 2.218 0 012.2-2.207h9.14a2.211 2.211 0 012.198 2.207v8.756zM261.42 157.828a2.22 2.22 0 01-2.207 2.21h-9.137a2.218 2.218 0 01-2.2-2.21v-8.756a2.218 2.218 0 012.2-2.207h9.137a2.22 2.22 0 012.208 2.207v8.756zM276.957 157.828a2.214 2.214 0 01-2.202 2.21h-9.133a2.218 2.218 0 01-2.204-2.21v-8.756a2.218 2.218 0 012.204-2.207h9.133a2.214 2.214 0 012.202 2.207v8.756z" fill="#0082BB" fill-rule="nonzero"/><rect fill="#0082BB" fill-rule="nonzero" x="278.957" y="146.865" width="13.542" height="13.174" rx="6.587"/><path d="M323.581 157.828a2.22 2.22 0 01-2.208 2.21h-9.14a2.214 2.214 0 01-2.2-2.21v-8.756a2.214 2.214 0 012.2-2.207h9.13a2.218 2.218 0 012.208 2.207l.01 8.756zM308.038 157.828a2.218 2.218 0 01-2.2 2.21h-9.13a2.218 2.218 0 01-2.205-2.21v-8.756a2.214 2.214 0 012.204-2.207h9.13a2.218 2.218 0 012.201 2.207v8.756zM339.124 157.828a2.214 2.214 0 01-2.205 2.21h-9.133a2.214 2.214 0 01-2.201-2.21v-8.756a2.214 2.214 0 012.2-2.207h9.124c1.217.005 2.201.991 2.205 2.207l.01 8.756zM156.666 173.301a2.204 2.204 0 01-2.198 2.208h-21.037a2.208 2.208 0 01-2.2-2.208v-8.752c0-1.217.983-2.205 2.2-2.21h21.037c1.217.005 2.2.994 2.198 2.21v8.752zM172.528 173.301a2.208 2.208 0 01-2.201 2.208h-9.134a2.211 2.211 0 01-2.204-2.208v-8.752a2.214 2.214 0 012.204-2.21h9.134a2.211 2.211 0 012.2 2.21v8.752zM188.018 173.301a2.208 2.208 0 01-2.201 2.208h-9.137a2.214 2.214 0 01-2.204-2.208v-8.752a2.218 2.218 0 012.204-2.21h9.133a2.211 2.211 0 012.201 2.21l.004 8.752zM203.508 173.301a2.211 2.211 0 01-2.208 2.208h-9.127a2.211 2.211 0 01-2.207-2.208v-8.752a2.214 2.214 0 012.207-2.21h9.127a2.214 2.214 0 012.208 2.21v8.752zM218.991 173.301a2.208 2.208 0 01-2.198 2.208h-9.136a2.211 2.211 0 01-2.205-2.208v-8.752a2.214 2.214 0 012.205-2.21h9.136a2.211 2.211 0 012.198 2.21v8.752zM234.478 173.301a2.211 2.211 0 01-2.208 2.208h-9.127a2.211 2.211 0 01-2.2-2.208v-8.752a2.214 2.214 0 012.2-2.21h9.14a2.214 2.214 0 012.208 2.21l-.013 8.752zM249.968 173.301a2.214 2.214 0 01-2.208 2.208h-9.124a2.211 2.211 0 01-2.204-2.208v-8.752c0-1.218.986-2.207 2.204-2.21h9.11a2.218 2.218 0 012.208 2.21l.014 8.752zM265.458 173.301a2.211 2.211 0 01-2.208 2.208h-9.127a2.208 2.208 0 01-2.204-2.208v-8.752c0-1.218.986-2.207 2.204-2.21h9.127a2.214 2.214 0 012.208 2.21v8.752zM280.944 173.301a2.214 2.214 0 01-2.204 2.208h-9.127a2.211 2.211 0 01-2.208-2.208v-8.752a2.214 2.214 0 012.208-2.21h9.127c1.217.007 2.2.993 2.204 2.21v8.752zM296.44 173.301a2.208 2.208 0 01-2.2 2.208h-9.15a2.204 2.204 0 01-2.198-2.208v-8.752a2.208 2.208 0 012.198-2.21h9.14a2.211 2.211 0 012.2 2.21l.01 8.752zM311.904 173.301a2.211 2.211 0 01-2.204 2.208h-9.13a2.211 2.211 0 01-2.205-2.208v-8.752a2.214 2.214 0 012.205-2.21h9.13a2.211 2.211 0 012.204 2.21v8.752zM327.407 173.301a2.211 2.211 0 01-2.207 2.208h-9.137a2.204 2.204 0 01-2.195-2.208v-8.752a2.208 2.208 0 012.195-2.21h9.137a2.214 2.214 0 012.207 2.21v8.752zM342.894 173.301a2.211 2.211 0 01-2.204 2.208h-9.134a2.211 2.211 0 01-2.204-2.208v-8.752c0-1.218.986-2.207 2.204-2.21h9.134a2.214 2.214 0 012.204 2.21v8.752z" fill="#0082BB" fill-rule="nonzero"/><path d="M343.358 146.865a2.218 2.218 0 00-2.208 2.207v8.756a2.162 2.162 0 002.09 2.21 2.152 2.152 0 012.082 2.202V173.3a2.211 2.211 0 002.201 2.208h5.087a2.211 2.211 0 002.204-2.208v-24.229a2.218 2.218 0 00-2.204-2.207h-9.252zM148.141 188.778a2.211 2.211 0 01-2.204 2.204h-12.503a2.204 2.204 0 01-2.2-2.204v-8.762c0-1.216.984-2.202 2.2-2.204h12.503c1.216.003 2.2.988 2.204 2.204v8.762zM164.398 188.778a2.211 2.211 0 01-2.201 2.204h-9.137a2.208 2.208 0 01-2.204-2.204v-8.762a2.208 2.208 0 012.204-2.204h9.143a2.211 2.211 0 012.201 2.204l-.006 8.762zM179.924 188.778a2.211 2.211 0 01-2.204 2.204h-9.13a2.211 2.211 0 01-2.208-2.204v-8.762a2.211 2.211 0 012.208-2.204h9.13c1.216.003 2.2.988 2.204 2.204v8.762zM195.457 188.778a2.211 2.211 0 01-2.201 2.204h-9.144a2.211 2.211 0 01-2.204-2.204v-8.762a2.211 2.211 0 012.204-2.204h9.144a2.211 2.211 0 012.2 2.204v8.762zM210.98 188.778a2.204 2.204 0 01-2.202 2.204h-9.133a2.211 2.211 0 01-2.204-2.204v-8.762a2.211 2.211 0 012.204-2.204h9.133a2.204 2.204 0 012.202 2.204v8.762zM226.509 188.778a2.211 2.211 0 01-2.201 2.204h-9.134a2.211 2.211 0 01-2.2-2.204v-8.762a2.211 2.211 0 012.2-2.204h9.137a2.211 2.211 0 012.201 2.204l-.003 8.762zM242.042 188.778a2.211 2.211 0 01-2.205 2.204h-9.14a2.211 2.211 0 01-2.2-2.204v-8.762a2.211 2.211 0 012.2-2.204h9.153c1.216.003 2.201.988 2.205 2.204l-.013 8.762zM257.561 188.778a2.204 2.204 0 01-2.2 2.204h-9.128a2.211 2.211 0 01-2.207-2.204v-8.762a2.211 2.211 0 012.207-2.204h9.127a2.204 2.204 0 012.201 2.204v8.762zM273.1 188.778a2.214 2.214 0 01-2.21 2.204h-9.124a2.208 2.208 0 01-2.204-2.204v-8.762a2.208 2.208 0 012.204-2.204h9.124a2.214 2.214 0 012.21 2.204v8.762zM288.623 188.778a2.208 2.208 0 01-2.197 2.204h-9.137a2.211 2.211 0 01-2.208-2.204v-8.762a2.211 2.211 0 012.208-2.204h9.137a2.208 2.208 0 012.197 2.204v8.762zM304.153 188.778a2.211 2.211 0 01-2.201 2.204h-9.13a2.208 2.208 0 01-2.202-2.204v-8.762a2.208 2.208 0 012.202-2.204h9.136a2.211 2.211 0 012.201 2.204l-.006 8.762zM319.689 188.778a2.214 2.214 0 01-2.208 2.204h-9.137a2.208 2.208 0 01-2.2-2.204v-8.762a2.208 2.208 0 012.2-2.204h9.154a2.214 2.214 0 012.207 2.204l-.016 8.762zM354.814 188.778a2.211 2.211 0 01-2.204 2.204h-28.5a2.208 2.208 0 01-2.2-2.204v-8.762a2.208 2.208 0 012.2-2.204h28.5c1.216.003 2.2.988 2.204 2.204v8.762zM144.766 205.452a2.208 2.208 0 01-2.201 2.195h-9.134a2.204 2.204 0 01-2.2-2.195V195.3c0-1.217.983-2.206 2.2-2.211h9.134a2.211 2.211 0 012.2 2.21v10.154zM160.331 205.452a2.208 2.208 0 01-2.197 2.195h-9.13a2.208 2.208 0 01-2.205-2.195V195.3c0-1.219.986-2.208 2.204-2.211h9.13a2.211 2.211 0 012.198 2.21v10.154zM175.903 205.452a2.214 2.214 0 01-2.207 2.195h-9.127a2.218 2.218 0 01-2.208-2.195V195.3a2.22 2.22 0 012.208-2.211h9.127a2.218 2.218 0 012.207 2.21v10.154zM195.638 205.452a2.208 2.208 0 01-2.201 2.195h-13.3a2.211 2.211 0 01-2.203-2.195V195.3a2.214 2.214 0 012.204-2.211h13.299a2.211 2.211 0 012.2 2.21v10.154zM292.647 205.452a2.204 2.204 0 01-2.2 2.195h-13.303a2.211 2.211 0 01-2.201-2.195V195.3a2.214 2.214 0 012.201-2.211h13.302a2.208 2.208 0 012.201 2.21v10.154zM273.2 205.452a2.208 2.208 0 01-2.202 2.195h-71.234a2.208 2.208 0 01-2.198-2.195V195.3c0-1.216.982-2.204 2.198-2.211h71.234a2.211 2.211 0 012.201 2.21v10.154zM307.989 205.452a2.208 2.208 0 01-2.201 2.195h-9.137a2.208 2.208 0 01-2.2-2.195V195.3c0-1.217.983-2.206 2.2-2.211h9.137a2.211 2.211 0 012.201 2.21v10.154zM323.657 205.452a2.218 2.218 0 01-2.208 2.195h-9.137a2.208 2.208 0 01-2.198-2.195v-3.017a2.204 2.204 0 012.198-2.201h9.134c1.215.004 2.2.986 2.207 2.201l.004 3.017zM339.324 205.452a2.214 2.214 0 01-2.207 2.195h-9.13a2.208 2.208 0 01-2.205-2.195V195.3c0-1.219.986-2.208 2.204-2.211h9.13a2.218 2.218 0 012.208 2.21v10.154zM354.814 205.452a2.211 2.211 0 01-2.204 2.195h-9.12a2.211 2.211 0 01-2.205-2.195v-3.017a2.208 2.208 0 012.205-2.201h9.133c1.215.002 2.2.986 2.204 2.201l-.013 3.017z" fill="#0082BB" fill-rule="nonzero"/><path d="M286.472 279.273a4.419 4.419 0 01-4.41 4.405h-77.686a4.415 4.415 0 01-4.409-4.405v-54.866a4.419 4.419 0 014.41-4.41h77.686a4.422 4.422 0 014.409 4.41v54.866z" fill="#EAF4FE" fill-rule="nonzero"/><path fill="#C5E1F9" fill-rule="nonzero" d="M349.557 45.618H98l25.594 49.2H364.04l25.587-49.2z"/><path d="M338.65 100.777a.602.602 0 00-.596-.602H147.99a.602.602 0 00-.592.602v9.715c0 .33.27.596.599.596H338.06a.602.602 0 00.595-.596l-.006-9.715z" fill="#005B82" fill-rule="nonzero"/><path fill="#EAF4FE" fill-rule="nonzero" d="M275.137 94.818l36.139-49.2h-37.05l-36.136 49.2zM299.191 94.818l36.142-49.2h-13.91l-36.133 49.2z"/><path fill="#00B3FE" fill-rule="nonzero" d="M335.333 45.618l4.08-5.554H325.51l-4.086 5.554z"/><path fill="#0094D4" fill-rule="nonzero" d="M285.29 94.818l-5.244 7.137h13.904l5.241-7.137z"/><path fill="#00B3FE" fill-rule="nonzero" d="M311.276 45.618l4.086-5.554h-37.047l-4.09 5.554zM238.09 94.818l-5.244 7.137h37.05l5.241-7.137z"/><path d="M186.948 57.34c-9.745 13.017-28.198 15.668-41.214 5.923-13.017-9.745-15.67-28.197-5.925-41.214 9.744-13.018 28.196-15.671 41.214-5.927a29.437 29.437 0 015.925 41.218z" fill="#EAF4FE" fill-rule="nonzero"/><path d="M303.53 183.612a56.55 56.55 0 01-43.12-93.176L247.22 65.43l23.982 15.197a56.261 56.261 0 0132.329-10.2c31.256 0 56.57 25.335 56.57 56.59a56.57 56.57 0 01-56.57 56.594z" fill="#C5E1F9" fill-rule="nonzero"/><path d="M303.53 183.612h-.572V70.458h.573c31.256 0 56.57 25.334 56.57 56.59-.003 31.24-25.33 56.564-56.57 56.564z" fill="#EAF4FE" fill-rule="nonzero"/><path fill="#EAF4FE" fill-rule="nonzero" d="M319.998 156.946v-8.824h-46.97l-.013-11.601h46.983v-8.824l18.277 14.627z"/><path fill="#00B3FE" fill-rule="nonzero" d="M291.292 130.319v-8.824h46.97l.013-11.601h-46.983v-8.825l-18.277 14.625zM319.998 148.122h-17.04V136.52h17.04v-8.824l18.277 14.627-18.277 14.622z"/><path fill="#C5E1F9" fill-rule="nonzero" d="M338.262 121.495h-35.304v-11.601h35.317zM183.191 39.692c0-11.042-8.883-20.027-19.816-20.027s-19.81 8.985-19.81 20.027c0 11.045 8.883 20.027 19.81 20.027 10.926 0 19.816-8.982 19.816-20.027zm-5.593 7.896a58.515 58.515 0 00-5.468-1.092c.27-1.656.44-3.327.506-5.004h6.86a16.45 16.45 0 01-1.895 6.093l-.003.003zm-14.227 8.045c-1.385 0-3.132-2.214-4.34-6.04a55.39 55.39 0 018.68 0c-1.198 3.822-2.951 6.037-4.336 6.037l-.004.003zm-5.175-9.571a36.54 36.54 0 01-.49-4.58h11.34a33.697 33.697 0 01-.49 4.58 57.962 57.962 0 00-10.36 0zm-9.041-14.27c1.81.451 3.619.823 5.468 1.096a41.038 41.038 0 00-.51 5.004h-6.857a16.45 16.45 0 011.899-6.093v-.006zm14.22-8.037c1.385 0 3.138 2.207 4.34 6.037a55.39 55.39 0 01-8.68 0c1.194-3.823 2.955-6.03 4.34-6.03v-.007zm0 9.814c1.734 0 3.46-.102 5.182-.256.267 1.513.43 3.043.49 4.58h-11.341c.067-1.536.23-3.066.49-4.58 1.727.16 3.448.263 5.179.263v-.007zm-16.122 7.897h6.857c.072 1.685.247 3.363.526 5.027-1.836.276-3.659.64-5.468 1.092a16.45 16.45 0 01-1.912-6.096l-.003-.023zm25.383-3.59a41.054 41.054 0 00-.503-4.975c1.836-.273 3.659-.658 5.465-1.095a16.398 16.398 0 011.902 6.1l-6.864-.03zm2.728-9.232c-1.316.296-2.655.55-3.998.743a21.432 21.432 0 00-2.06-4.984 16.18 16.18 0 016.058 4.24zm-17.882-4.241a21.152 21.152 0 00-2.066 4.984 53.378 53.378 0 01-3.998-.743 16.178 16.178 0 016.05-4.241h.014zm-6.064 26.337a56.243 56.243 0 013.998-.743 21.034 21.034 0 002.066 4.984 16.089 16.089 0 01-6.077-4.24h.013zm17.889 4.241a21.313 21.313 0 002.046-4.971 57.48 57.48 0 014.004.744 16.217 16.217 0 01-6.063 4.227h.013z"/><path fill="#EAF4FE" fill-rule="nonzero" d="M318.9 323.492v-43.285h43.287z"/><rect fill="#EAF4FE" fill-rule="nonzero" x="310.733" y="244.601" width="98.737" height="64.454" rx="6.07"/><path fill="#C5E1F9" fill-rule="nonzero" d="M330.885 262.845h63.43v2.997h-63.43zM330.885 275.331h63.43v2.997h-63.43zM330.885 287.817h63.43v2.997h-63.43z"/><path d="M163.848 292.256a44.348 44.348 0 002.524-14.77 46.286 46.286 0 00-.48-6.55l-6.117.898a37.537 37.537 0 00-4-12.243l5.412-2.898a44.295 44.295 0 00-9.183-11.815l-4.159 4.563a38.08 38.08 0 00-10.837-7.008l2.392-5.649a44.088 44.088 0 00-14.602-3.382l-.352 6.156c-.737-.04-1.484-.119-2.228-.119-3.585.009-7.15.525-10.59 1.533l-1.711-5.905a44.456 44.456 0 00-13.473 6.554l3.619 5.02a38.073 38.073 0 00-9.045 9.173l-5.05-3.524a44.232 44.232 0 00-6.38 13.585l5.955 1.613a37.623 37.623 0 00-1.372 9.988c0 .955.083 1.892.132 2.84l-6.136.447a44.519 44.519 0 003.619 14.546l5.62-2.484a38.287 38.287 0 007.169 10.72l-4.491 4.247a43.96 43.96 0 0011.976 8.998l2.813-5.478a37.636 37.636 0 0012.298 3.856l-.793 6.107c1.935.253 3.883.381 5.834.381a43.85 43.85 0 009.11-.947l-1.263-5.995a37.649 37.649 0 0011.976-4.807l3.218 5.264a44.601 44.601 0 0011.265-9.847l-4.784-3.876a37.88 37.88 0 006.304-11.259l5.81 2.067zm-17.628-14.77a24.018 24.018 0 11-24.018-24.001c13.258.005 24.008 10.744 24.028 24.001h-.01z" fill="#EAF4FE" fill-rule="nonzero"/><path d="M425.457 122.62l-21.337 36.132s1.379 6.192 4.817 2.75c3.438-3.44 14.453-12.387 14.453-12.387s15.142-34.408 2.067-26.495z" fill="#8E5928" fill-rule="nonzero"/><path d="M410.658 157.373s-1.721 6.883-2.409 10.325c-.687 3.441-4.129 12.733-5.504 14.108l-1.376 1.375 2.409-8.775-2.583 3.1s-1.375 5.159-1.892 5.85a3.62 3.62 0 01-1.375 1.03c-1.72.861-2.066-.172-2.066-.172l1.204-6.537 1.892-4.817-3.096 2.925s-.688 5.504-1.204 6.021c-.517.517-1.721.171-1.721.171l1.204-7.742 4.991-7.238s-1.033-.516-2.237 1.03c-1.204 1.546-2.408 2.237-3.27 2.237-.862 0 2.408-4.471 3.27-5.159.862-.687 2.237-4.99 6.02-6.195a40.92 40.92 0 017.743-1.537z" fill="#8E5928" fill-rule="nonzero"/><path d="M482.576 316.35s.458 4.474.458 5.85c0 1.374-2.981 5.263-3.211 6.425l-.227 1.145h22.478s.457-2.303-3.215-5.265c-3.671-2.96-4.816-5.047-5.264-8.834-.447-3.786-11.019.678-11.019.678zM444.266 316.925l2.303 12.387H411.46a5.073 5.073 0 013.902-5.047c4.13-1.148 15.369-4.606 18.353-8.258 2.984-3.652 10.551.918 10.551.918z" fill="#005B82" fill-rule="nonzero"/><path d="M429.07 76.167c2.631-1.975 7.566-5.508 14.278-5.163 6.712.346-3.948 11.187-9.117 14.625-5.168 3.438-7.567 2.237-7.567 2.237s-1.036-9.12 2.405-11.7z" fill="#0098D9" fill-rule="nonzero"/><path d="M424.078 139.43c-6.91 44.11 8.633 175.616 9.666 176.65 2.35 2.349 6.426.756 8.917-.073 1.033-.329 5.162-49.895 4.129-58.498-1.497-12.486-3.705-15.01-3.784-23.745-.115-12.503 8.83-29.845 6.538-43.93-2.415-14.8-24.278-57.992-25.466-50.405z" fill="#005B82" fill-rule="nonzero"/><path d="M466.06 137.416s9.634 20.99 10.667 30.624c.987 9.239 1.72 64.348 1.72 64.348s7.897 18.583 10.325 27.529c2.428 8.946 4.817 55.745 4.817 55.745l-11.013.687-35.099-128.693-24.087-48.75 42.67-1.49z" fill="#0082BB" fill-rule="nonzero"/><path d="M464.895 139.965l9.779 94.144s11.7 28.815 17.605 81.97" stroke="#00B3FE" stroke-width="1.72"/><path d="M464.168 71.52s8.084 7.914 7.054 15.484c-1.03 7.57-4.935 10.841-6.31 20.475-1.376 9.633 1.599 34.609 6.416 38.392 4.816 3.784-45.056 24.271-49.935 12.888-1.609-3.758 7.39-45.03 2.685-55.867-1.783-4.116-1.204-13.49 4.303-16.918 5.508-3.428 13.592-15.134 13.592-15.134s17.204-1.899 22.195.68z" fill="#00B3FE" fill-rule="nonzero"/><path d="M464.168 71.52s8.084.688 11.009 7.055c2.925 6.366 9.979 34.754 9.979 41.808 0 7.054-.859 10.153-.859 10.153l-18.425-9.808s-4.115-48.52-1.704-49.207z" fill="#0098D9" fill-rule="nonzero"/><path d="M484.307 130.536s-.329 3.948-.329 4.817c0 .868-3.784 1.891-7.742 1.891s-33.204-16.861-35.957-18.066c-2.754-1.204-9.12-2.925-10.667-3.096-1.546-.17-2.754-4.474-1.895-7.238.569-1.823 1.138-3.418 2.007-3.948.444-.267.967-.253 1.609.155 1.892 1.204 9.462 7.741 9.462 7.741s17.72 3.27 24.775 6.367c7.054 3.096 15.286 6.902 18.737 11.377z" fill="#AF7B50" fill-rule="nonzero"/><path d="M420.636 106.103l9.062-1.187-2.007 3.948 1.204 6.02-4.988.86s-.688-.86.171-1.205c.859-.345 2.066-.858 2.066-.858s-2.408-.346-3.441-.517c-1.033-.171-1.204-.517-1.204-1.033 0-.517 1.033-.859 1.033-.859s-1.896-.687-2.067-1.204c-.17-.517-.516-1.204-.17-1.72.345-.517-.172-1.902.341-2.245z" fill="#8E5928" fill-rule="nonzero"/><path d="M463.273 61.687s15.217-1.56 15.135-8.114c-.082-6.554-7.64-8.673-3.764-14.223 3.876-5.55 10.088-10.071-2.1-12.605-12.186-2.533-5.5-14.585-14.08-14.37-8.582.213-9.565 5.82-17.557 6.701-7.992.882-18.484-4.57-22.294 5.896-3.81 10.466-2.527 19.997 2.494 20.317 5.02.319-.7 5.12-1.81 8.702-1.108 3.583 3.116 16.45 22.857 7.113 19.74-9.337 11.772.997 21.12.583z" fill="#202954" fill-rule="nonzero"/><path d="M455.048 57.699s-.619 5.037-.23 8.83c.414 4.034 5.978 3.64.144 7.594-7.425 5.038-14.825-1.053-14.825-1.053s3.24-3.826 3.228-8.636c0-5.014-3.948-8.452 1.934-7.768 5.883.684 10.091-2.346 9.749 1.033z" fill="#AF7B50" fill-rule="nonzero"/><path d="M450.689 67.793c.898-.184 4.359-10.094 4.359-10.094.329-3.379-3.882-.345-9.749-1.033-5.866-.688-1.95 2.754-1.934 7.768v.138c.901 2.547 3.57 3.991 7.324 3.221z" fill="#8E5928" fill-rule="nonzero"/><path d="M459.904 27.394s5.123 17.687 1.224 23.537c-7.603 11.404-9.153 11.776-15.552 11.272-6.4-.503-12.342-8.689-13.76-17.003-1.355-7.92 2.702-6.89 10.858-9.41 8.883-2.744 10.416-4.899 10.416-4.899s-.839 3.593-6.64 5.804c-.348.128 9.694 4.132 13.454-9.301z" fill="#AF7B50" fill-rule="nonzero"/><path d="M443.94 53.678a87.747 87.747 0 00-4.734-.375c-.066 2.991 2.303 5.594 5.51 5.949 3.14.329 5.96-1.625 6.61-4.465a93.026 93.026 0 00-7.386-1.109z" fill="#FFF" fill-rule="nonzero"/><circle fill="#212A54" fill-rule="nonzero" cx="51.698" cy="18.971" r="18.747"/><path d="M44.654 33.003s-1.461 8.489-3.12 12.332c-2.987 6.909-6.718 18.31 15.843 12.953 3.783-.898-6.91-12.223-1.56-17.806 5.35-5.584-11.163-7.479-11.163-7.479z" fill="#AF7B50" fill-rule="nonzero"/><path d="M42.772 32.901s2.941 3.146-.928 13.549c0 0 7.347 3.652 12.071-.556-.19-1.71.152-3.583 1.892-5.396 5.366-5.603-13.035-7.597-13.035-7.597z" fill="#8E5928" fill-rule="nonzero"/><path d="M67.448 14.296s1.918 7.123-.586 17.937c-2.504 10.815-8.225 13.325-17.148 10.591s-8.837-13.73-8.298-16.375c.54-2.645-8.225-1.674-5.508-7.544 2.718-5.87 6.127-3.04 6.252-.57.125 2.472 1.276 5.768 3.458 4.067 2.181-1.7-.379-11.702 3.793-9.633 4.172 2.07 11.509 5.096 18.037 1.527z" fill="#AF7B50" fill-rule="nonzero"/><path d="M43.7 147.01l-.438 181.615h39.59s-4.389-8.775-17.658-8.775c-7.942 0 8.337-176.782 8.337-176.782L43.7 147.01z" fill="#005B82" fill-rule="nonzero"/><path fill="#0082BB" fill-rule="nonzero" d="M25.387 143.39L2.356 326.973l17.329 2.52L47.427 167.08l16.122-22.264z"/><path d="M19.682 329.493H1.257s4.606-9.67 11.973-8.748c7.366.921 6.452 8.748 6.452 8.748z" fill="#005B82" fill-rule="nonzero"/><path d="M57.847 52.478c.967-.918 13.763 9.814 13.763 9.814s3.783 54.89 3.125 69.145c-.658 14.257-1.753 14.257-1.753 14.257s-23.906 4.826-34.876 3.727c-10.969-1.099-12.94-2.849-12.94-2.849s1.096-41.673-1.974-48.253c-3.07-6.58-11.624-29.174-9.65-31.806 1.974-2.632 24.347-15.351 24.347-15.351s11.404 9.429 19.958 1.316z" fill="#00B3FE" fill-rule="nonzero"/><path d="M71.61 62.292s1.81 45.568 1.81 49.681c0 4.113-.823 10.693 10.692 17.273 11.516 6.58 22.209 14.806 22.209 14.806s5.1-7.074 6.25-7.074c1.152 0-13.489-17.602-20.892-24.84-7.402-7.239-11.68-46.885-20.07-49.846z" fill="#0098D9" fill-rule="nonzero"/><path d="M108.624 135.165s2.303-.286 4.431-.329c1.497-.02 2.922.08 3.465.484 1.316.987 5.758 5.922 6.087 6.415.329.494.822 1.481-1.645.823-2.468-.658-4.373-3.29-3.784-1.316.931 3.126 6.14 9.706 7.403 11.186.95 1.12 2.632 4.113 1.645 4.442-.987.33-2.797-3.126-4.935-5.1-2.139-1.974-4.442-5.264-1.81-.658 2.632 4.607 3.563 6.308 3.836 7.897.181 1.036-1.204.658-1.697.164-.494-.493.546.714-1.208.767-.658.02-3.57-4.78-4.55-6.36-2.524-4.057-2.797-2.468-2.797-2.468s3.29 6.087 3.62 6.58c.328.494.986 4.113-1.646.988-2.632-3.126-8.06-11.845-9.212-13.16-1.152-1.317-1.48-9.861 2.797-10.355z" fill="#8E5928" fill-rule="nonzero"/><path d="M67.003 93.055l9.213 2.303a2.866 2.866 0 01-1.974 1.316c-1.316.164 1.316 1.316 2.632 1.48 1.316.165.987 1.481-.494 1.975-1.48.493.33.493.33 1.151s1.973.494-.988.658c-2.96.165-3.783.823-3.783.823l4.277 1.81s.493.493-2.468.657c-2.96.165-6.251.494-6.251.494s-1.48-11.516-.494-12.667z" fill="#AF7B50" fill-rule="nonzero"/><path d="M53.35 101.445s-1.481 4.606-.494 6.58c.987 1.974 1.81 1.806 6.251.329 4.442-1.477 8.39-2.632 8.39-2.632s3.62-13.325-.494-12.667c-4.112.658-10.199 4.606-13.654 8.39z" fill="#8E5928" fill-rule="nonzero"/><path d="M19.244 105.557l34.875-6.58s2.412 7.238 1.316 11.404c-1.095 4.165-17.546 11.844-27.416 13.818-9.87 1.974-16.45 2.195-20.4.22-3.947-1.974-10.527-8.774-5.484-23.688 5.044-14.915 9.87-33.56 11.407-34.218 1.537-.658 10.529 23.91 10.529 23.91L19.244 103.8v1.757z" fill="#0098D9" fill-rule="nonzero"/></g></svg>