<svg xmlns="http://www.w3.org/2000/svg" viewBox="0 0 117.8 57.9"><path fill="none" d="M-26.1-26.2H144v110H-26.1z"/><path fill="#FFF" d="M18.4 14.2l.4-2.4H8.6c-1.1 0-2.1.9-2.3 1.9l-4 22.4c-.2 1.1.5 2 1.6 2h11.2l.4-2.4H5.9l1.8-10h7.8l.4-2.3H8.1l1.6-9.2h8.7zM23.4 38.5c-4.5 0-7.1-4-5.9-10.7 1.2-6.8 5.2-10.6 9.8-10.6 2.5 0 3.8.8 4.3 1.4l-1.1 1.9c-.5-.5-1.4-1-2.9-1-3.7 0-5.8 3.4-6.6 8.2-1 4.9.2 8.3 3.5 8.3 1.4 0 2.4-.5 3.3-1l.5 2.1c-1 .7-2.6 1.4-4.9 1.4zM37.6 38.5c-5.6 0-7.2-4.6-6.2-10.7 1.1-6.1 4.4-10.7 9.9-10.7 5.7 0 7.3 4.5 6.2 10.7-1.1 6.1-4.4 10.7-9.9 10.7zm3.3-19.2c-3.9 0-5.5 4.4-6.2 8.5-.7 4.2-.6 8.4 3.3 8.4s5.4-4.2 6.1-8.3c.7-4.2.8-8.6-3.2-8.6zM72.8 38.5c-5.3 0-7.4-2.3-6.8-6.1 1-5.5 6.4-7.1 12.9-7.7l.2-1.3c.6-3.2-1.2-4.1-3.8-4.1-2 0-3.9.7-5.2 1.3l-.5-2c1.3-.6 3.7-1.5 6.6-1.5 3.8 0 6.9 1.6 6 6.7L79.9 37c-1.7.9-4.2 1.5-7.1 1.5zm5.8-12.1c-5.3.6-8.6 1.8-9.3 5.9-.5 3 1.1 4.2 4.1 4.2 1.3 0 2.6-.2 3.5-.7l1.7-9.4zM94.1 38.1l2.6-14.8c.3-1.9-.1-4-3.6-4-1.9 0-2.9.3-4 .7l-3.2 18.1h-3.4l3.4-19.5c2-.9 4.5-1.5 7.8-1.5 5.7 0 6.8 3.2 6.3 6.1L97.4 38h-3.3z"/><path fill="#BED000" d="M114.5 42.8H1.1l.1-.6h113.4z"/><path fill="#FFF" d="M59.3 17.3c-2 0-3.2.4-4.4 1l1.8-10-3.7 2L48.3 37c1.1.8 3.1 1.5 5.9 1.5 6.1 0 10.1-4.4 11.3-11 1.1-6.3-1.4-10.2-6.2-10.2zm2.8 10.3c-.9 5.2-3.2 8.7-7.5 8.7-1.1 0-2.1-.1-2.8-.5L54.6 20c1-.5 2-.8 3.5-.8 3.9 0 4.8 3.9 4 8.4zM117.8 17.5h-3.5l-9 9.5h-.1l2.3-13C109.8 1.2 95.9-1.5 81.4.7c-9.9 1.5-18.6 5.4-18.6 5.4s11.4-4 21.4-4.6c12.6-.7 22.5 1.2 19.6 14.6l-3.8 22h3.3l1.9-10.6h.1l6 10.6h3.8l-6.7-11 9.4-9.6zM3 49.6l-1.4 8.2H.3l1.4-8.2H0l.1-.8h4.8l-.1.8H3zM8.6 57.7l.9-5c.1-.7-.1-1.4-1.2-1.4-.5 0-1 .1-1.4.4l-1.1 6H4.6l1.8-10.2h1.1L7 51.1c.6-.3 1.2-.4 1.7-.4 1.8 0 2.1 1.1 2 2.1l-.9 5H8.6zM12.5 54.6c-.1 1.6.5 2.4 1.7 2.4.8 0 1.4-.2 1.8-.4l.2.8c-.5.3-1.3.5-2.2.5-1.8 0-2.9-1.2-2.5-3.7.4-2.4 1.8-3.6 3.5-3.6s2.5 1.1 2.1 3.4l-4.6.6zm2.3-3.3c-1 0-1.9.8-2.2 2.7l3.5-.5c.2-1.6-.3-2.2-1.3-2.2zM24.3 54h-.4l-.7 3.7H22l1.5-8.6c.5-.3 1.4-.5 2.3-.5 2.1 0 2.9 1.1 2.6 2.7-.2 1.6-1.5 3-4.1 2.7zm1.4-4.7c-.5 0-.8.1-1 .2l-.7 3.8h.4c1.9.2 2.7-.7 2.9-2 .3-1.3-.2-2-1.6-2zM30.8 57.9c-1.8 0-2.5-.8-2.3-2.1.3-1.9 2.2-2.4 4.4-2.6l.1-.4c.2-1.1-.4-1.4-1.3-1.4-.7 0-1.3.2-1.8.4l-.2-.7c.4-.2 1.3-.5 2.2-.5 1.3 0 2.4.6 2 2.3l-.8 4.5c-.5.3-1.4.5-2.3.5zm1.9-4.2c-1.8.2-2.9.6-3.2 2-.2 1 .4 1.4 1.4 1.4.4 0 .9-.1 1.2-.2l.6-3.2zM38.6 57.7l.9-5c.1-.7 0-1.4-1.2-1.4-.7 0-1 .1-1.4.2l-1.1 6.2h-1.1l1.2-6.7c.7-.3 1.5-.5 2.7-.5 2 0 2.3 1.1 2.2 2.1l-.9 5.1h-1.3zM50.7 57.7l-.3-2.7h-3.1L46 57.7h-1.1l4.6-9h1.1l1.4 9h-1.3zm-.8-6.8c-.1-.7-.1-1.1-.1-1.1s-.1.4-.5 1.1l-1.7 3.4h2.7l-.4-3.4zM55.6 51.4l-1.1 6.3h-1.2l1.1-6.3h-.8l.1-.7h.8l.2-1c.2-1.4 1.2-2.3 2.8-2.2l-.1.7c-.7 0-1.3.4-1.5 1.4l-.2 1.1H57l-.1.7h-1.3zM60.9 51.5c-.5-.2-1.2-.1-1.6.1l-1.1 6.1H57l1.2-6.7c.8-.3 1.5-.5 3.1-.5l-.4 1zM61.3 57.7l1.2-7h1.1l-1.2 7h-1.1zm2.1-8.4c-.4 0-.6-.3-.6-.6.1-.4.4-.6.8-.6s.6.3.6.6c-.1.4-.5.6-.8.6zM66.6 57.9c-1.5 0-2.4-1.4-2-3.7.4-2.3 1.8-3.6 3.3-3.6.9 0 1.3.3 1.5.5l-.4.6c-.2-.2-.5-.3-1-.3-1.3 0-2 1.2-2.3 2.8-.3 1.6.1 2.8 1.3 2.8.5 0 .8-.2 1.1-.3l.2.7c-.4.2-.9.5-1.7.5zM71.7 57.9c-1.8 0-2.5-.8-2.3-2.1.3-1.9 2.2-2.4 4.4-2.6l.1-.4c.2-1.1-.4-1.4-1.3-1.4-.7 0-1.3.2-1.8.4l-.2-.7c.4-.2 1.3-.5 2.2-.5 1.3 0 2.4.6 2.1 2.3l-.8 4.5c-.5.3-1.4.5-2.4.5zm2-4.2c-1.8.2-2.9.6-3.2 2-.2 1 .4 1.4 1.4 1.4.4 0 .9-.1 1.2-.2l.6-3.2zM79.6 57.7l.9-5c.1-.7 0-1.4-1.2-1.4-.7 0-1 .1-1.4.2l-1.1 6.2h-1.1l1.2-6.7c.7-.3 1.5-.5 2.7-.5 2 0 2.3 1.1 2.2 2.1l-.9 5.1h-1.3zM89 57.9c-1 0-1.8-.2-2.4-.5l1.5-8.2c.5-.3 1.4-.5 2.4-.5 2 0 2.9.9 2.6 2.2-.2 1.3-1.3 1.9-2.1 2.1.8.2 1.9 1 1.7 2.3-.3 1.8-1.9 2.6-3.7 2.6zm.1-4.6h-.6l-.6 3.6c.3.1.7.2 1.2.2 1.2 0 2.2-.5 2.4-1.8.2-1.4-.5-2-2.4-2zm1.3-4c-.5 0-.8.1-1.2.2l-.6 3.2h.6c1.9 0 2.6-.6 2.8-1.7.2-1.1-.4-1.7-1.6-1.7zM96 57.9c-1.8 0-2.5-.8-2.3-2.1.3-1.9 2.2-2.4 4.4-2.6l.1-.4c.2-1.1-.4-1.4-1.3-1.4-.7 0-1.4.2-1.8.4l-.2-.7c.4-.2 1.3-.5 2.2-.5 1.3 0 2.4.6 2.1 2.3l-.8 4.5c-.6.3-1.5.5-2.4.5zm1.9-4.2c-1.8.2-2.9.6-3.2 2-.2 1 .4 1.4 1.4 1.4.4 0 .9-.1 1.2-.2l.6-3.2zM104 57.7l.9-5c.1-.7 0-1.4-1.2-1.4-.7 0-1 .1-1.4.2l-1.1 6.2H100l1.2-6.7c.7-.3 1.5-.5 2.7-.5 2 0 2.3 1.1 2.2 2.1l-.9 5.1H104zM110.6 57.7l-2-3.6-.6 3.6h-1.1l1.8-10.2h1.1l-1.1 6.5 3.1-3.3h1.2l-3.2 3.3 2.3 3.7h-1.5z"/></svg>