<svg id="Layer_1" data-name="Layer 1" xmlns="http://www.w3.org/2000/svg" viewBox="0 0 30 30"><defs><style>.cls-1{fill:#d7d7d7;}.cls-2{fill:#006c3f;}.cls-3{fill:#fdd115;}.cls-4{fill:#ce1327;}</style></defs><title>Ghana_Flag</title><polygon class="cls-1" points="0.98 9.7 15 9.7 15 9.7 15 9.7 29.02 9.7 29.02 9.7 0.98 9.7 0.98 9.7"/><path class="cls-2" d="M29.52,20.8h-28A15,15,0,0,0,29.52,20.8Z" transform="translate(-0.5 -0.5)"/><path class="cls-3" d="M15.5,10.2l1.32,4.05h4.28l-3.47,2.5L19,20.8,15.5,18.3,12,20.8l1.32-4.05-3.47-2.5h4.28L15.5,10.2h-14a14.8,14.8,0,0,0,0,10.6h28a14.8,14.8,0,0,0,0-10.6h-14Z" transform="translate(-0.5 -0.5)"/><path class="cls-4" d="M1.48,10.2h28A15,15,0,0,0,1.48,10.2Z" transform="translate(-0.5 -0.5)"/><polygon points="15 9.7 15 9.7 15 9.7 15 9.7"/><polygon points="13.68 13.75 9.39 13.75 12.86 16.25 11.53 20.3 15 17.8 18.47 20.3 17.14 16.25 20.61 13.75 16.32 13.75 15 9.7 15 9.7 13.68 13.75"/></svg>