<svg width="103" height="102" xmlns="http://www.w3.org/2000/svg"><defs><linearGradient x1="50%" y1="100%" x2="50%" y2="0%" id="a"><stop stop-color="#283682" offset="0%"/><stop stop-color="#0082BB" offset="100%"/></linearGradient><linearGradient x1="50%" y1="99.999%" x2="50%" y2="-.001%" id="b"><stop stop-color="#0082BB" offset="0%"/><stop stop-color="#00C58F" offset="30%"/></linearGradient></defs><g transform="translate(.473)" fill-rule="nonzero" fill="none"><rect fill="url(#a)" width="102" height="102" rx="14"/><path d="M27.71 73.472l.196-1.302H23.14c-.52.024-.961.459-1.073 1.059L20.23 85.522a.995.995 0 00.144.758.7.7 0 00.599.323h5.192l.196-1.3H21.9l.825-5.52h3.635l.19-1.277h-3.635l.753-5.036 4.042.002zM31.24 86.604c-2.414 0-3.814-2.37-3.183-6.267.638-3.961 2.785-6.243 5.241-6.243 1.349 0 2.011.47 2.306.806l-.623 1.14a2.073 2.073 0 00-1.544-.579c-2.003 0-3.103 1.99-3.556 4.81-.466 2.887.155 4.879 1.933 4.879.63 0 1.246-.203 1.773-.581l.252 1.232c-.493.424-1.372.803-2.6.803zM38.595 86.604c-2.589 0-3.34-2.708-2.85-6.243.5-3.605 2.013-6.267 4.567-6.267 2.605 0 3.343 2.662 2.843 6.267-.49 3.535-1.992 6.243-4.56 6.243zm1.56-11.256c-1.812 0-2.522 2.573-2.861 5.006-.34 2.434-.29 4.883 1.489 4.883 1.813 0 2.49-2.462 2.832-4.876.342-2.414.352-5.013-1.46-5.013zM57.106 86.604c-2.502 0-3.477-1.363-3.162-3.557.45-3.202 2.976-4.136 6.016-4.52l.104-.739c.261-1.859-.556-2.394-1.79-2.394-.928 0-1.846.435-2.434.76l-.212-1.165c.96-.58 2.01-.885 3.075-.895 1.787 0 3.226.962 2.81 3.918l-1.092 7.745c-.802.514-1.978.847-3.315.847zm2.711-7.072c-2.483.38-4.024 1.03-4.366 3.47-.245 1.74.511 2.461 1.942 2.461a3.192 3.192 0 001.646-.402l.778-5.53zM68.513 86.604l1.558-8.14c.205-1.05-.053-2.209-2.159-2.209a6.148 6.148 0 00-2.417.4l-1.907 9.949h-2.003l2.06-10.748c1.194-.484 2.696-.8 4.661-.8 3.437 0 4.104 1.745 3.797 3.366l-1.571 8.182h-2.019zM50.342 75.142a5.227 5.227 0 00-2.408.515l.976-5.412-2.047 1.155-2.599 14.422c.596.433 1.71.782 3.248.782 3.368 0 5.59-2.392 6.233-5.956.61-3.363-.792-5.506-3.403-5.506zm1.544 5.563c-.504 2.806-1.776 4.722-4.112 4.722-.59 0-1.167-.062-1.552-.268l1.534-8.513a3.91 3.91 0 011.928-.431c2.149 0 2.64 2.06 2.202 4.49z" fill="#FFF"/><path d="M81.792 75.166h-1.905l-4.89 5.3h-.04l1.246-7.218c1.239-7.152-6.298-8.662-14.17-7.424-5.35.84-10.07 3.025-10.07 3.025s6.169-2.213 11.597-2.528c6.848-.398 12.228.664 10.661 8.1l-2.097 12.183h1.78l1.008-5.896h.04l3.251 5.896h2.073l-3.626-6.086 5.142-5.352zM67.847 23.421L51.81 16.427a.827.827 0 00-.66 0l-16.035 6.994a.778.778 0 00-.474.71v9.954c.008 10.192 6.652 19.27 16.574 22.645a.828.828 0 00.563-.012l.984-.39c9.396-3.64 15.557-12.459 15.558-22.266v-9.934a.778.778 0 00-.474-.707zM54.073 35.704l.643 5.596c.05.449-.2.879-.623 1.07-.149.063-.31.095-.474.093h-4.272a1.164 1.164 0 01-.474-.094 1.049 1.049 0 01-.627-1.07l.643-5.595a.61.61 0 00-.221-.542 4.082 4.082 0 01-1.507-3.31c.026-1.497.874-2.866 2.224-3.591a4.44 4.44 0 014.32.072c1.324.77 2.123 2.166 2.097 3.662a4.088 4.088 0 01-1.508 3.167.61.61 0 00-.22.542z" fill="#FFF"/><path d="M72.644 21.338l-20.85-8.767a.83.83 0 00-.626 0l-20.85 8.767a.799.799 0 00-.488.733v12.58c-.008 13.24 8.681 24.935 21.416 28.824a.819.819 0 00.47 0c12.732-3.889 21.42-15.578 21.416-28.815V22.079a.799.799 0 00-.488-.741zm-2.72 14.105c.003 10.71-6.559 20.342-16.566 24.317-.955.38-1.652.783-2.675.426C40.12 56.5 33.046 46.592 33.037 35.466V25.26a2.396 2.396 0 011.421-2.18l16.036-7.172a2.411 2.411 0 011.974 0l16.038 7.171a2.396 2.396 0 011.419 2.18v10.184z" fill="url(#b)"/></g></svg>