<svg xmlns="http://www.w3.org/2000/svg" viewBox="0 0 365 180.04"><defs><style>.cls-1{fill:#bcd848}.cls-2{fill:#fff}</style></defs><g id="Layer_2" data-name="Layer 2"><g id="Layer_1-2" data-name="Layer 1"><path class="cls-1" d="M3.29 133.29c0-.73.36-1.83.36-2.56h46.77c7.31.37 14.61.37 21.56.37h283.15c0 .73-.36 1.82-.36 2.55q-175.38-.54-351.48-.36z"/><path class="cls-2" d="M195.47 149.73c1.46-1.09 4 0 3.29 1.83-.37 1.83-2.56 1.83-4 1.46-.02-1.1-.39-2.56.71-3.29zM218.85 10.16A219.27 219.27 0 01269.64.3c13.52-.73 27-.37 39.82 4 8.41 2.92 16.08 7.67 20.46 15.34 4.39 7.31 4.39 16.08 2.93 24.48-2.2 13.15-4.75 26.67-6.94 39.83 9.13-9.87 18.63-19.73 27.76-29.6H365c-9.87 9.87-19.73 19.73-29.6 30l20.83 34h-12.06l-18.63-32.92c-1.83 11-4 21.92-5.85 32.88h-10.23c4.39-24.48 8.77-49 12.79-73.44 1.46-8.4 1.1-17.17-3.65-24.48-4-6.57-11-10.59-18.27-12.79-10.6-2.92-21.56-3.28-32.52-2.92-25.21.73-49.69 6.94-73.8 14.62a226.38 226.38 0 0124.84-9.14zM19.36 43.41c.37-3.65 3.66-6.94 7.31-6.58h31.79A43.57 43.57 0 0157 44.14H30.32c-1.46 9.5-3.28 19-5.11 28.13h24.11c-.36 2.56-.73 5.12-1.09 7.31H24.11c-1.82 10.23-3.65 20.46-5.48 31.06h29.6a57.52 57.52 0 01-1.46 7.67h-34a5.24 5.24 0 01-5.85-3.66c-.36-2.19.37-4.38.73-6.57 4.04-21.56 7.7-43.08 11.71-64.67zM78.55 54c6.58-1.47 13.89-.74 19.37 3.65-1.1 2.19-2.56 4.38-3.66 6.21-5.11-4.38-13.15-4-18.63 0-5.85 4.38-8.4 11.33-10.23 17.9-1.46 7-2.56 14.25-.73 21.56a11.67 11.67 0 008 8.4c4.75 1.1 9.13-.36 13.15-2.92.37 2.19 1.1 4.75 1.46 6.94A27.75 27.75 0 0165.77 119c-7.31-2.19-11.33-9.13-12.43-16.44-1.46-9.5.37-19.73 4-28.5C61.38 64.6 68.69 56.2 78.55 54z"/><path class="cls-2" d="M266.35 57.66c8.77-3.65 18.27-4.75 27.77-4.39 4.75.37 10.23 1.83 13.15 5.48s3.65 8.77 2.93 13.16c-2.56 15.34-5.48 30.69-8 46.4h-10.6c2.56-15.34 5.48-30.69 8-46 .36-2.92.36-6.21-1.46-8.76-1.83-2.2-4.39-2.93-7.31-3.29a32.33 32.33 0 00-14.62 2.19c-3.28 18.63-6.57 37.27-9.86 56.27h-10.6c3.25-20.5 6.95-40.6 10.6-61.06zM142.13 58c-5.12-5.11-12.79-5.48-19.37-4.38a27.13 27.13 0 00-13.15 6.94C102.67 67.52 99 77 97.19 86.89c-1.1 7.67-1.83 15.71 1.46 23a15.66 15.66 0 0010.59 9.11c9.14 2.56 19.73 0 26.31-6.94 8.4-8.77 11.33-21.19 12.42-32.88.37-7.64-.36-15.67-5.84-21.18zm-4.39 18.27a80 80 0 01-4 21.19c-1.82 5.12-4.75 10.6-9.86 13.16-4.39 2.19-10.6 1.82-13.89-2.19-2.55-3.66-2.92-8-2.92-12.43a72.24 72.24 0 014.75-23.38c2.19-5.12 5.48-10.23 11-12.42 4-1.1 9.14-1.1 12.06 2.55 2.86 4.04 2.86 9.16 2.86 13.54zM194 55.83c-7.31-3.65-16.08-2.56-23.38.37 1.82-10.23 3.65-20.83 5.48-31.06-4 2.19-7.68 4.39-11.7 6.58-4.75 27.77-9.86 55.53-14.61 83.3 6.94 4 15.35 4.75 23 4a32.86 32.86 0 0023.38-15 51.38 51.38 0 008-28.13c-.3-7.27-2.86-16.04-10.17-20.06zm-2.56 34.71c-1.82 6.94-4.75 14.25-10.59 18.63-5.49 4-13.16 4.39-19.73 2.2q3.88-21.93 7.68-43.85c.36-1.82.36-3.65 1.09-5.48 4.75-2.19 10.6-3.29 15.35-1.46 3.65 1.1 5.84 4.75 6.94 8 2.19 7.35.73 15.02-.73 21.96zM253.2 60.22a16.44 16.44 0 00-11-6.58A43.57 43.57 0 00215.93 58c.37 2.2 1.1 4.39 1.46 6.58 6.58-2.92 13.52-5.11 20.46-3.65 2.93.36 5.85 1.82 6.94 4.75 1.47 3.65.37 7.67-.36 11.32-8.41.73-16.81 2.2-24.48 5.48-6.21 2.56-11.69 7.31-14.25 13.89-1.83 5.11-2.56 11.69.37 16.44 2.92 4.38 8.4 6.21 13.51 6.94a51.72 51.72 0 0027.77-4c2.56-13.88 4.75-27.4 7.31-41.28 1.09-5.12 1.09-10.23-1.46-14.25zm-15 51.15a27.13 27.13 0 01-16.08 1.46c-3.65-.73-6.94-3.66-7.31-7.31-.36-6.58 2.2-13.88 8-17.54 6.21-3.65 13.52-4.75 20.83-5.84-2.14 9.86-3.23 19.73-5.42 29.23zM14.25 179.32q2.74-15.88 5.48-31.78h3.65c-.73 3.65-1.09 7.3-1.82 11 2.92-1.1 6.57-1.83 9.5 0 1.82 1.1 1.82 3.65 1.46 5.48-.73 5.12-1.83 10.23-2.56 15.34h-3.65c.73-5.48 2.19-11 2.92-16.07a2.67 2.67 0 00-2.92-3.29 8.21 8.21 0 00-5.12 1.1q-1.64 9.31-3.29 18.63a11.09 11.09 0 00-3.65-.41zM172.09 149.73c1.82-1.83 4.38-2.19 6.57-2.19 0 2.19-1.82 2.92-3.65 3.65-1.83 1.46-1.46 4-2.19 6.21h3.65c0 .73-.36 1.83-.36 2.56h-3.66q-1.63 9.87-3.29 19.73h-3.65q1.65-9.87 3.29-19.73h-2.56c0-.73.37-1.46.37-2.56h2.55c.37-2.92.73-5.84 2.93-7.67zM330.65 179.32q2.75-15.88 5.48-31.78h3.66c-1.1 6.58-2.19 13.15-3.66 19.73 3.29-3.29 6.22-6.58 9.5-9.87h4a131.66 131.66 0 01-10.23 10.23c2.56 4 4.75 7.68 7.31 11.69h-4.38c-2.2-3.65-4.39-7.3-6.22-11-.73 3.66-1.46 7.31-1.82 11zM.37 151.19h15c0 1.1-.37 1.83-.37 2.93H9.5q-2.19 12.6-4.39 25.2h-4l4.38-25.2H0c0-1.12.37-1.83.37-2.93zM87.69 154.12c-2.56-3.66-7.68-3.29-11.33-2.56-1.09.36-3.29.36-3.29 2.19-1.46 8.77-2.92 17.17-4.75 25.94h4c.73-3.65 1.46-7.67 1.83-11.33 3.29 0 6.58.37 9.5-1.46 4.4-2.55 6.23-8.77 4.04-12.78zm-6.58 10.59c-1.83 1.1-4.38.73-6.58.73.37-4 1.46-8 1.83-11.69 2.56-.36 6.58-1.1 7.67 1.83a7.1 7.1 0 01-2.92 9.13zM156.74 151.19h-3.65c-4.75 9.5-9.5 18.64-14.25 28.13h3.65a89.07 89.07 0 004-8.4H156c.37 2.56.73 5.48 1.1 8h4c-1.44-9.09-2.9-18.23-4.36-27.73zM148 168.36c1.83-4.38 4.39-8.76 6.21-13.15.37 4.39 1.1 8.77 1.47 13.15zM111.07 158.5c4-1.46 8.4-2.19 12.42-.73a4.35 4.35 0 012.56 5.48c-.73 5.48-1.83 11-2.92 16.44h-3.66c.73-5.85 2.2-11.33 2.93-17.17-.37-3.65-5.48-2.92-8-2.19-1.1 6.57-2.19 12.78-3.29 19.36h-3.65c1.05-7.31 2.54-14.25 3.61-21.19zM205.34 158.87a8.81 8.81 0 019.86-.37 12 12 0 01-1.1 2.19c-1.83-.73-4-1.46-5.84-.36-3.29 1.82-4.39 5.84-4.75 9.13-.37 2.56-.37 5.48 2.19 6.94 1.83 1.1 3.65 0 5.48-.73 0 .73.37 1.83.37 2.56-2.56 1.09-5.48 1.83-8 .73a7.27 7.27 0 01-4-6.58c-.06-4.75 1.45-10.59 5.79-13.51zM237.85 158.5c3.65-1.1 7.68-1.83 11.33-1.1a5.16 5.16 0 014 5.12c-.73 5.84-1.83 11.32-2.93 17.17h-3.65c.73-5.48 2.19-11.33 2.92-16.81 0-4-5.11-3.28-8-2.55-1.09 6.57-2.19 12.78-3.28 19.36h-3.66c1.08-7.31 2.18-14.25 3.27-21.19zM313.48 158.5c4-1.1 8.4-2.19 12.43-.73 2.19.73 3.28 3.29 2.92 5.48-.73 5.48-1.83 11-2.92 16.44h-3.66c.73-5.85 2.19-11.33 2.92-17.17-.36-4-5.11-2.92-8-2.19-1.1 6.57-2.2 12.78-3.29 19.36h-3.68c.72-7.31 2.19-14.25 3.28-21.19zM180.12 158.5c3.29-1.5 6.58-1.5 9.88-1.5-.36.73-.73 1.83-1.1 2.56a24.43 24.43 0 00-5.11.36c-1.1 6.58-2.19 12.79-3.29 19.36h-3.65q1.63-10.37 3.27-20.78zM193.64 157.4h3.66c-1.47 7.31-2.56 14.62-4 21.92h-3.65c1.43-7.32 2.9-14.61 3.99-21.92zM50.79 158.13c-4-2.19-9.5-1.09-12.06 2.56a19.9 19.9 0 00-3.29 12.79 7 7 0 005.12 5.84 15.15 15.15 0 009.86-1.09c0-.73-.36-1.83-.36-2.56-2.93 1.1-6.22 2.2-9.14.37-1.83-1.46-1.83-4-2.19-6.21l14.27-2.2c.34-3.28 1.07-7.3-2.21-9.5zm-1.1 8c-3.65.73-7.31 1.1-10.6 1.46.73-2.55 1.47-5.84 4-7.3 1.83-1.1 4.39-1.46 5.85.36 1.48 1.5.75 3.7.75 5.52zM288.64 158.87c.73-2.56 0-5.85-2.92-7-4-1.82-8.77-1.09-12.79.37-1.47 8.77-2.92 17.54-4.75 25.94a19.07 19.07 0 0013.51.36 8.63 8.63 0 005.12-9.86c-.36-2.19-2.56-3.29-4.38-4.38a8.66 8.66 0 006.21-5.43zm-5.48 9.13c1.09 2.92 0 6.94-3.29 8-2.19 1.09-5.12.73-7.67.36.73-3.65 1.46-7.3 1.82-11 3.29.45 7.31-.28 9.14 2.64zm.36-6.58c-2.19 2.56-5.84 2.19-8.77 2.19.74-3.28 1.1-6.57 1.83-9.86 2.56-.36 5.48-1.1 7.67.73 1.47 1.83.75 5.12-.73 6.94zM102.67 157.4c-3.29-1.46-7.31-.73-10.6 1.1 0 .73.37 1.83.37 2.19 2.92-.73 5.84-2.19 8.77-.73 1.82 1.1 1.09 3.29.73 4.75-4.39.37-9.14 1.1-12.06 4.39-2.19 2.55-2.92 7.67.37 9.49 4 1.83 8.76 1.1 12.78-.36.73-5.12 1.83-10.23 2.56-15.35a5.42 5.42 0 00-2.92-5.48zm-2.93 19.37c-2.55.73-5.48 1.1-7.3-.73-1.46-1.83-.37-4.39.73-6.21 2.19-2.2 5.48-2.56 8.4-3.29-.73 3.65-1.46 6.94-1.83 10.23zM230.18 157.77c-3.65-1.83-7.67-.73-11.33.73 0 .73.37 1.83.37 2.56 2.56-.73 5.84-2.19 8.4-.73 1.83 1.09 1.1 3.28 1.1 4.75-4.39.73-9.5 1.09-12.42 5.11-1.83 2.56-2.2 6.94.73 8.77 4 1.83 8.76 1.1 12.79-.37.72-4.75 1.82-9.86 2.55-14.61.37-2.56 0-5.11-2.19-6.21zm-3.65 19.36c-2.2.37-4.75 1.1-6.58 0-1.83-1.46-1.46-4.38-.37-6.21 1.83-2.92 5.48-3.29 8.77-3.65-.73 2.92-1.09 6.21-1.82 9.86zM305.08 157.77c-3.65-1.46-7.67-.37-11 .73 0 .73.36 1.46.36 2.19 2.93-.73 5.85-2.19 8.77-.36 1.47 1.09.73 2.92.73 4.75-4.38.73-9.86 1.09-12.42 5.11-1.83 2.56-2.19 7.31 1.46 8.77 4 1.46 8.41.73 12.42-.37.73-5.11 1.83-10.23 2.56-15.34.04-2.19-1.05-4.75-2.88-5.48zm-3.29 19c-2.19.36-4.75 1.1-6.94-.37-1.83-1.46-1.1-4.38 0-6.21 1.83-2.56 5.48-2.92 8.4-3.65-.36 3.65-1.09 6.94-1.46 10.23z"/></g></g></svg>